<svg width="1130" height="638" viewBox="0 0 1130 638" fill="none" xmlns="http://www.w3.org/2000/svg">
  <rect width="1130" height="638" rx="6" fill="url(#paint0_linear_538_20)"/>
  <g filter="url(#filter0_d_538_20)">
  <path d="M141.688 377V260.636H191.915C200.551 260.636 208.108 262.341 214.585 265.75C221.063 269.159 226.1 273.951 229.699 280.125C233.297 286.299 235.097 293.515 235.097 301.773C235.097 310.106 233.241 317.322 229.528 323.42C225.854 329.519 220.684 334.216 214.017 337.511C207.388 340.807 199.642 342.455 190.778 342.455H160.778V317.909H184.415C188.127 317.909 191.29 317.265 193.903 315.977C196.555 314.652 198.581 312.777 199.983 310.352C201.422 307.928 202.142 305.068 202.142 301.773C202.142 298.439 201.422 295.598 199.983 293.25C198.581 290.864 196.555 289.045 193.903 287.795C191.29 286.508 188.127 285.864 184.415 285.864H173.278V377H141.688ZM262.688 377V260.636H312.915C321.551 260.636 329.108 262.208 335.585 265.352C342.063 268.496 347.1 273.023 350.699 278.932C354.297 284.841 356.097 291.924 356.097 300.182C356.097 308.515 354.241 315.542 350.528 321.261C346.854 326.981 341.684 331.299 335.017 334.216C328.388 337.133 320.642 338.591 311.778 338.591H281.778V314.045H305.415C309.127 314.045 312.29 313.591 314.903 312.682C317.555 311.735 319.581 310.239 320.983 308.193C322.422 306.148 323.142 303.477 323.142 300.182C323.142 296.848 322.422 294.14 320.983 292.057C319.581 289.936 317.555 288.383 314.903 287.398C312.29 286.375 309.127 285.864 305.415 285.864H294.278V377H262.688ZM330.869 323.591L359.96 377H325.642L297.233 323.591H330.869ZM498.29 318.818C498.29 331.773 495.771 342.701 490.733 351.602C485.695 360.466 478.896 367.189 470.335 371.773C461.775 376.318 452.229 378.591 441.699 378.591C431.093 378.591 421.509 376.299 412.949 371.716C404.426 367.095 397.646 360.352 392.608 351.489C387.608 342.587 385.108 331.697 385.108 318.818C385.108 305.864 387.608 294.955 392.608 286.091C397.646 277.189 404.426 270.466 412.949 265.92C421.509 261.337 431.093 259.045 441.699 259.045C452.229 259.045 461.775 261.337 470.335 265.92C478.896 270.466 485.695 277.189 490.733 286.091C495.771 294.955 498.29 305.864 498.29 318.818ZM465.79 318.818C465.79 311.848 464.862 305.977 463.006 301.205C461.188 296.394 458.479 292.758 454.881 290.295C451.32 287.795 446.926 286.545 441.699 286.545C436.472 286.545 432.059 287.795 428.46 290.295C424.9 292.758 422.191 296.394 420.335 301.205C418.517 305.977 417.608 311.848 417.608 318.818C417.608 325.788 418.517 331.678 420.335 336.489C422.191 341.261 424.9 344.898 428.46 347.398C432.059 349.86 436.472 351.091 441.699 351.091C446.926 351.091 451.32 349.86 454.881 347.398C458.479 344.898 461.188 341.261 463.006 336.489C464.862 331.678 465.79 325.788 465.79 318.818ZM576.861 260.636H607.997V340.409C607.959 347.985 606.046 354.652 602.259 360.409C598.509 366.129 593.319 370.598 586.69 373.818C580.099 377 572.505 378.591 563.906 378.591C556.444 378.591 549.626 377.303 543.452 374.727C537.277 372.114 532.353 368.023 528.679 362.455C525.005 356.848 523.187 349.576 523.224 340.636H554.815C554.929 343.553 555.421 346.015 556.293 348.023C557.202 350.03 558.452 351.545 560.043 352.568C561.671 353.553 563.641 354.045 565.952 354.045C568.3 354.045 570.27 353.534 571.861 352.511C573.49 351.489 574.721 349.973 575.554 347.966C576.387 345.92 576.823 343.402 576.861 340.409V260.636ZM638.969 377V260.636H722.832V286.091H670.56V306.091H718.514V331.545H670.56V351.545H722.605V377H638.969ZM863.136 304.273H831.091C830.864 301.621 830.258 299.216 829.273 297.057C828.326 294.898 827 293.042 825.295 291.489C823.629 289.898 821.602 288.686 819.216 287.852C816.83 286.981 814.121 286.545 811.091 286.545C805.788 286.545 801.299 287.833 797.625 290.409C793.989 292.985 791.223 296.678 789.33 301.489C787.473 306.299 786.545 312.076 786.545 318.818C786.545 325.939 787.492 331.905 789.386 336.716C791.318 341.489 794.102 345.087 797.739 347.511C801.375 349.898 805.75 351.091 810.864 351.091C813.78 351.091 816.394 350.731 818.705 350.011C821.015 349.254 823.023 348.174 824.727 346.773C826.432 345.371 827.814 343.686 828.875 341.716C829.973 339.708 830.712 337.455 831.091 334.955L863.136 335.182C862.758 340.106 861.375 345.125 858.989 350.239C856.602 355.314 853.212 360.011 848.818 364.33C844.462 368.61 839.064 372.057 832.625 374.67C826.186 377.284 818.705 378.591 810.182 378.591C799.5 378.591 789.917 376.299 781.432 371.716C772.985 367.133 766.299 360.39 761.375 351.489C756.489 342.587 754.045 331.697 754.045 318.818C754.045 305.864 756.545 294.955 761.545 286.091C766.545 277.189 773.288 270.466 781.773 265.92C790.258 261.337 799.727 259.045 810.182 259.045C817.53 259.045 824.292 260.049 830.466 262.057C836.64 264.064 842.057 267 846.716 270.864C851.375 274.689 855.125 279.405 857.966 285.011C860.807 290.617 862.53 297.038 863.136 304.273ZM890.287 286.091V260.636H991.423V286.091H956.423V377H925.287V286.091H890.287Z" fill="white"/>
  </g>
  <defs>
  <filter id="filter0_d_538_20" x="141.688" y="259.045" width="873.736" height="135.546" filterUnits="userSpaceOnUse" color-interpolation-filters="sRGB">
  <feFlood flood-opacity="0" result="BackgroundImageFix"/>
  <feColorMatrix in="SourceAlpha" type="matrix" values="0 0 0 0 0 0 0 0 0 0 0 0 0 0 0 0 0 0 127 0" result="hardAlpha"/>
  <feOffset dx="16" dy="8"/>
  <feGaussianBlur stdDeviation="4"/>
  <feComposite in2="hardAlpha" operator="out"/>
  <feColorMatrix type="matrix" values="0 0 0 0 0 0 0 0 0 0 0 0 0 0 0 0 0 0 0.25 0"/>
  <feBlend mode="normal" in2="BackgroundImageFix" result="effect1_dropShadow_538_20"/>
  <feBlend mode="normal" in="SourceGraphic" in2="effect1_dropShadow_538_20" result="shape"/>
  </filter>
  <linearGradient id="paint0_linear_538_20" x1="5.94736" y1="1.51267e-05" x2="1111.39" y2="668.756" gradientUnits="userSpaceOnUse">
  <stop stop-color="#00FFA3"/>
  <stop offset="0.505239" stop-color="#0038FF"/>
  <stop offset="1" stop-color="#9747FF"/>
  </linearGradient>
  </defs>
  </svg>
  